<?xml version="1.0" encoding="UTF-8"?>
<!-- Created with Inkscape (http://www.inkscape.org/) -->
<svg width="150" height="150" version="1.1" viewBox="0 0 39.687 39.688" xmlns="http://www.w3.org/2000/svg" xmlns:cc="http://creativecommons.org/ns#" xmlns:dc="http://purl.org/dc/elements/1.1/" xmlns:rdf="http://www.w3.org/1999/02/22-rdf-syntax-ns#">
 <metadata>
  <rdf:RDF>
   <cc:Work rdf:about="">
    <dc:format>image/svg+xml</dc:format>
    <dc:type rdf:resource="http://purl.org/dc/dcmitype/StillImage"/>
    <dc:title/>
   </cc:Work>
  </rdf:RDF>
 </metadata>
 <g transform="translate(0 -257.31)" fill="#fff" stroke-width="0">
  <path d="m3.0471 262.69a23.216 20.541 38.04 0 0 7.5852 28.916 23.216 20.541 38.04 0 0 28.66-0.50065 24.617 19.741 37.215 0 1-25.395-3.651 24.617 19.741 37.215 0 1-10.85-24.764z"/>
  <path d="m12.457 260.4a16.683 14.709 35.298 0 0 5.4748 20.615 16.683 14.709 35.298 0 0 20.686-0.35691 17.691 14.135 35.672 0 1-18.329-2.6029 17.691 14.135 35.672 0 1-7.8314-17.655z"/>
  <path d="m22.501 260.93a9.4207 8.3309 37.557 0 0 3.0804 11.718 9.4207 8.3309 37.557 0 0 11.639-0.20288 9.9893 8.0059 36.946 0 1-10.313-1.4796 9.9893 8.0059 36.946 0 1-4.4063-10.036z"/>
 </g>
</svg>
